<svg id="Layer_1" height="512" viewBox="0 0 128 128" width="512" xmlns="http://www.w3.org/2000/svg" data-name="Layer 1"><path d="m79.781 26.135h16v56.667h-16z" fill="#606de0" transform="matrix(.91 -.415 .415 .91 -14.694 41.382)"/><path d="m76.32 28.555 23.787 51.433 6.72-3.069-23.537-51.547z" fill="#3647d7"/><path d="m52.34 26.899h16v56.667h-16z" fill="#1db6bc"/><path d="m60.34 26.899h8v56.667h-8z" fill="#17799b"/><path d="m37.173 35.065h15.167v48.5h-15.167z" fill="#fed33c"/><path d="m44.756 35.065h7.583v48.5h-7.583z" fill="#fd9e35"/><path d="m11 83.565h106v9.927h-106z" fill="#9f5f4d"/><path d="m18.757 93.492h9.136v9.136h-9.136z" fill="#714437"/><path d="m100.107 93.492h9.136v9.136h-9.136z" fill="#714437"/><path d="m21.173 26.899h16v56.667h-16z" fill="#fc445e"/><path d="m74.139 33.529h16v17.167h-16z" fill="#f7ecda" transform="matrix(.91 -.415 .415 .91 -10.071 37.922)"/><path d="m37.173 40.274h15.167v5.559h-15.167z" fill="#f7ecda"/><path d="m52.34 33.286h16v5.559h-16z" fill="#f7ecda"/><path d="m52.34 71.899h16v5.559h-16z" fill="#f7ecda"/><path d="m64 83.565h53v9.927h-53z" fill="#714437"/><path d="m29.173 26.899h8v56.667h-8z" fill="#b20944"/><path d="m21.173 33.065h16v17.167h-16z" fill="#f7ecda"/><g fill="#ecd6b2"><path d="m29.173 33.065h8v17.167h-8z"/><path d="m44.756 40.274h7.583v5.559h-7.583z"/><path d="m60.34 33.286h8v5.559h-8z" transform="matrix(-1 0 0 -1 128.679 72.13)"/><path d="m60.34 71.899h8v5.559h-8z" transform="matrix(-1 0 0 -1 128.679 149.356)"/><path d="m78.909 34.152 7.206 15.581 6.866-3.135-7.13-15.616z"/></g></svg>