<svg id="Layer_1" height="512" viewBox="0 0 128 128" width="512" xmlns="http://www.w3.org/2000/svg" data-name="Layer 1"><path d="m64 42.3a10.068 10.068 0 1 0 -20.136 0v.092a11.431 11.431 0 0 0 -8.415 17.28 13.372 13.372 0 0 0 1.83 23.808 13.381 13.381 0 0 0 26.721-1.099z" fill="#fed33c"/><path d="m53.932 30.483a11.831 11.831 0 0 0 -11.725 10.431 13.18 13.18 0 0 0 -9.021 18.186 15.12 15.12 0 0 0 2.477 25.562 15.13 15.13 0 0 0 30.087-2.281v-40.081a11.832 11.832 0 0 0 -11.818-11.817zm8.318 51.9a11.625 11.625 0 0 1 -23.185 1.236 1.739 1.739 0 0 0 .006-.278q-.037-.46-.036-.931a11.621 11.621 0 0 1 11.607-11.61 1.75 1.75 0 0 0 0-3.5 15.122 15.122 0 0 0 -14.989 13.3 11.618 11.618 0 0 1 -.506-18.583 12.3 12.3 0 0 0 21.134-8.584 1.75 1.75 0 0 0 -3.5 0 8.812 8.812 0 0 1 -15.833 5.332 9.682 9.682 0 0 1 7.13-14.632 1.839 1.839 0 0 0 1.535-1.833 8.318 8.318 0 0 1 16.637 0z" fill="#fd9e35"/><path d="m64.018 42.3a10.068 10.068 0 1 1 20.136 0v.092a11.431 11.431 0 0 1 8.415 17.28 13.372 13.372 0 0 1 -1.83 23.808 13.381 13.381 0 0 1 -26.716-1.1z" fill="#606de0"/><path d="m62.268 42.3v40.081a15.13 15.13 0 0 0 30.088 2.285 15.12 15.12 0 0 0 2.477-25.566 13.18 13.18 0 0 0 -9.021-18.19 11.812 11.812 0 0 0 -23.544 1.39zm3.5 0a8.318 8.318 0 0 1 16.637 0 1.839 1.839 0 0 0 1.535 1.829 9.682 9.682 0 0 1 7.13 14.632 8.812 8.812 0 0 1 -15.833-5.332 1.75 1.75 0 1 0 -3.5 0 12.3 12.3 0 0 0 21.134 8.584 11.618 11.618 0 0 1 -.506 18.587 15.122 15.122 0 0 0 -14.988-13.3 1.75 1.75 0 0 0 0 3.5 11.621 11.621 0 0 1 11.607 11.608q0 .47-.036.931a1.739 1.739 0 0 0 .006.278 11.625 11.625 0 0 1 -23.185-1.236z" fill="#3647d7"/><g fill="#fd9e35"><path d="m64 9.25a1.75 1.75 0 0 0 -1.75 1.75v10.5a1.75 1.75 0 0 0 3.5 0v-10.5a1.75 1.75 0 0 0 -1.75-1.75z"/><path d="m100.239 25.286-7.425 7.425a1.75 1.75 0 1 0 2.475 2.475l7.425-7.425a1.75 1.75 0 0 0 -2.475-2.475z"/><path d="m117 62.25h-10.5a1.75 1.75 0 0 0 0 3.5h10.5a1.75 1.75 0 0 0 0-3.5z"/><path d="m95.289 92.814a1.75 1.75 0 0 0 -2.475 2.475l7.425 7.425a1.75 1.75 0 0 0 2.475-2.475z"/><path d="m64 104.75a1.75 1.75 0 0 0 -1.75 1.75v10.5a1.75 1.75 0 0 0 3.5 0v-10.5a1.75 1.75 0 0 0 -1.75-1.75z"/><path d="m32.711 92.814-7.425 7.425a1.75 1.75 0 1 0 2.475 2.475l7.425-7.425a1.75 1.75 0 1 0 -2.475-2.475z"/><path d="m21.5 62.25h-10.5a1.75 1.75 0 0 0 0 3.5h10.5a1.75 1.75 0 0 0 0-3.5z"/><path d="m27.761 25.286a1.75 1.75 0 0 0 -2.475 2.475l7.425 7.425a1.75 1.75 0 1 0 2.475-2.475z"/></g></svg>