<svg id="Layer_1" height="512" viewBox="0 0 128 128" width="512" xmlns="http://www.w3.org/2000/svg" data-name="Layer 1"><circle cx="57.795" cy="43.667" fill="#1db6bc" r="32.667"/><path d="m88.073 15.844a1.749 1.749 0 0 0 -2.475 0l-4.548 4.548a1.75 1.75 0 1 0 2.475 2.475l4.548-4.548a1.749 1.749 0 0 0 0-2.475z" fill="#fc445e"/><path d="m34.853 66.589-4.553 4.549a1.75 1.75 0 1 0 2.475 2.475l4.548-4.549a1.75 1.75 0 0 0 -2.475-2.475z" fill="#fc445e"/><path d="m90.461 43.667a32.667 32.667 0 0 0 -32.667-32.667v65.333a32.667 32.667 0 0 0 32.667-32.666z" fill="#17799b"/><path d="m53.774 76.078c-14.274-3.838-13.729-15.911-8.229-20.911s5.5-16.181-7-17.25c-9.653-.826-10.638-7.4-10.642-7.424a32.66 32.66 0 0 0 25.871 45.585z" fill="#606de0"/><path d="m90.461 43.667a32.672 32.672 0 0 0 -25.226-31.806c-.041.058-4.57 6.505 3.56 13.972 8.167 7.5 10.833 18 4.167 25.5a9.389 9.389 0 0 0 7.373 15.967 32.563 32.563 0 0 0 10.126-23.633z" fill="#3647d7"/><path d="m41.471 108.5h32.647a8.5 8.5 0 0 1 8.5 8.5 0 0 0 0 1 0 0h-49.647a0 0 0 0 1 0 0 8.5 8.5 0 0 1 8.5-8.5z" fill="#606de0"/><path d="m89.684 11.777-4.243 4.243a39.1 39.1 0 1 1 -55.293 55.294l-4.248 4.242a44.9 44.9 0 0 0 28.9 13.077v19.867h5.993v-19.867a45.063 45.063 0 0 0 28.891-76.856z" fill="#fed33c"/><path d="m85.441 16.02a39.08 39.08 0 0 1 -27.647 66.727v25.753h3v-19.867a45.063 45.063 0 0 0 28.89-76.856z" fill="#fd9e35"/><path d="m57.794 108.5v8.5h24.824a8.5 8.5 0 0 0 -8.5-8.5z" fill="#3647d7"/></svg>