<svg id="Layer_1" height="512" viewBox="0 0 128 128" width="512" xmlns="http://www.w3.org/2000/svg" data-name="Layer 1"><path d="m85.924 117h-68.333v-106h53.583l14.75 14.75z" fill="#f7ecda"/><path d="m71.174 11h-17.347v106h32.097v-91.25z" fill="#ecd6b2"/><path d="m85.924 25.75h-14.75v-14.75z" fill="#f7ecda"/><path d="m73.424 44h-26a1.75 1.75 0 0 1 0-3.5h26a1.75 1.75 0 0 1 0 3.5z" fill="#f7ecda"/><path d="m28.424 56.752h8.5v8.5h-8.5z" fill="#fc445e"/><path d="m73.424 62.752h-26a1.75 1.75 0 0 1 0-3.5h26a1.75 1.75 0 0 1 0 3.5z" fill="#f7ecda"/><path d="m28.424 75.504h8.5v8.5h-8.5z" fill="#fc445e"/><path d="m73.424 81.5h-26a1.75 1.75 0 0 1 0-3.5h26a1.75 1.75 0 0 1 0 3.5z" fill="#f7ecda"/><path d="m28.424 94.256h8.5v8.5h-8.5z" fill="#fc445e"/><path d="m73.424 100.256h-26a1.75 1.75 0 0 1 0-3.5h26a1.75 1.75 0 0 1 0 3.5z" fill="#f7ecda"/><path d="m85.957 89.351-12.2 9.155-.33-15.252 23.745-48.814a6.969 6.969 0 0 1 9.315-3.218 6.969 6.969 0 0 1 3.218 9.315z" fill="#fed33c"/><path d="m106.488 31.222a6.969 6.969 0 0 0 -9.315 3.218l-3.773 7.751 12.533 6.1 3.771-7.751a6.969 6.969 0 0 0 -3.216-9.318z" fill="#fc445e"/><path d="m32.674 48.25a1.75 1.75 0 0 1 -1.237-.513l-3.037-3.037a1.75 1.75 0 0 1 2.475-2.475l1.625 1.621 3.4-4.472a1.75 1.75 0 1 1 2.786 2.126l-4.619 6.065a1.755 1.755 0 0 1 -1.275.686c-.04-.002-.079-.001-.118-.001z" fill="#1db6bc"/><path d="m109.705 40.538a6.969 6.969 0 0 0 -3.218-9.315l-32.733 67.283 12.2-9.155z" fill="#fd9e35"/><path d="m105.935 48.288 3.771-7.751a6.969 6.969 0 0 0 -3.218-9.315l-6.82 14.018z" fill="#b20944"/></svg>