<svg id="Layer_1" enable-background="new 0 0 128 128" height="512" viewBox="0 0 128 128" width="512" xmlns="http://www.w3.org/2000/svg"><path d="m11 11h106v8h-106z" fill="#9f5f4d"/><path d="m11 76.3h106v8h-106z" fill="#9f5f4d"/><path d="m17 19h94v57.3h-94z" fill="#1db6bc"/><path d="m64.9 11h52.1v8h-52.1z" fill="#714437"/><path d="m64.9 76.3h52.1v8h-52.1z" fill="#714437"/><path d="m64.9 19h46.1v57.3h-46.1z" fill="#17799b"/><path d="m84.8 70.3h26.3v6.1h-26.3z" fill="#b20944"/><circle cx="104.4" cy="71" fill="#ecd6b2" r="5.7"/><path d="m107.8 76-13 22.4c-3.7 6.4-11.8 8.6-18.2 4.9l-4.9-2.6.1 16.4h-60.4v-8.7c0-11.4 6-21.9 15.8-27.7 5-3 10.7-4.5 16.5-4.5h4.2c3.7 0 11.2.9 11.2.9l.4.2 5.1 3.2 18.1 11.4c1.5.9 3.5.5 4.4-1 0 0 0-.1.1-.1l11.6-20.1z" fill="#606de0"/><path d="m103.5 65-14.3-26.6c-.5-.8-1.5-1.1-2.4-.7-.8.5-1.1 1.5-.7 2.3l14.3 26.6c.5.8 1.5 1.1 2.4.7.8-.5 1.1-1.5.7-2.3z" fill="#fd9e35"/><path d="m86.9 90.8c-.9 1.5-2.8 2-4.4 1.2 0 0-.1 0-.1-.1l-18-11.5-5.1-3.2-.3-.3s-7.5-.9-11.2-.9h-2.1v41h26.2l-.2-16.4 4.9 2.6c6.4 3.7 14.5 1.5 18.2-4.9l13-22.3-9.2-5.3z" fill="#3647d7"/><path d="m45.7 82.4-7.3 7.8-11.2-9.7c2-1.2 4.1-2.1 6.2-2.9z" fill="#fc445e"/><path d="m64.4 80.4-11.4 9.8-7.3-7.8 13.6-5.2z" fill="#b20944"/><path d="m43.2 32.4h5c9.3 0 16.8 7.5 16.8 16.8v18.3c0 8.3-6.7 15-15 15h-8.6c-8.3 0-15-6.7-15-15v-18.4c0-9.2 7.5-16.7 16.8-16.7z" fill="#f7ecda"/><path d="m20.3 58.4c0 3.4 2.7 6.1 6.1 6.1v-12.2c-3.4 0-6.1 2.7-6.1 6.1z" fill="#ecd6b2"/><path d="m71 58.4c0 3.4-2.7 6.1-6.1 6.1v-12.2c3.4 0 6.1 2.7 6.1 6.1z" fill="#ecd6b2"/><path d="m45.7 92.5-3.3-6.6 3.3-3.5 3.2 3.5z" fill="#fed33c"/><path d="m50.4 117h-9.5l4.8-24.5z" fill="#fed33c"/><path d="m45.7 82.4 3.2 3.5-3.2 6.6z" fill="#fd9e35"/><path d="m45.7 117h4.7l-4.7-24.5z" fill="#fd9e35"/><path d="m48.1 32.4h-2.5v50.1h4.4c8.3 0 15-6.7 15-15v-18.4c-.1-9.2-7.6-16.7-16.9-16.7z" fill="#ecd6b2"/><path d="m45.7 26.1h-20.7s-1.6 17.4 13.7 17.4h9.8c4.8 0 9.5 1.9 13 5.3l3.5 3.5v-.7c-.1-10.6-3.9-25.5-19.3-25.5z" fill="#9f5f4d"/><path d="m24.4 102.7v14.3h-3.5v-14.3c0-1 .8-1.8 1.8-1.8s1.7.8 1.7 1.8z" fill="#3647d7"/><g fill="#9f5f4d"><path d="m50.4 64.2c-1 0-1.8.8-1.8 1.8-.1 1.7-1.5 2.9-3.1 2.9-1.5-.1-2.8-1.3-2.9-2.9 0-1-.8-1.8-1.8-1.8s-1.8.8-1.8 1.8c.1 3.6 3.1 6.4 6.7 6.3 3.4-.1 6.2-2.9 6.3-6.3.2-1.1-.6-1.8-1.6-1.8z"/><circle cx="38.1" cy="55.4" r="2.9"/><circle cx="53.2" cy="55.4" r="2.9"/></g><path d="m48.5 43.5c4.8 0 9.5 1.9 13 5.3l3.5 3.5v-.7c.6-10.7-3.8-25.5-19.3-25.5v17.4z" fill="#714437"/></svg>